<svg xmlns="http://www.w3.org/2000/svg" viewBox="0 0 1920 1080">
<defs>
    <style>
    .cls-1{fill:#2b2b2b}.cls-2{fill:#4a534d;}
    </style>
    </defs>
    <g id="Layer_2" data-name="Layer 2">
        <g id="Layer_1-2" data-name="Layer 1">
            <path class="cls-1" d="M0,0V1080H1229c-48.15,0-274.72-117.86-267.68-500.77,6.08-330.81,298.44-466,451.89-511h0c70.13-20.59,151.51-28.71,251.34-28.71,29.09,0,59.75.69,92.15,2A936.44,936.44,0,0,1,1920,62.59V0Z"/>
            <g id="Group_8" data-name="Group 8">
                <g id="Group_7" data-name="Group 7">
                    <path id="Path_2" data-name="Path 2" class="cls-2" d="M1093.05,134.92c-66.8,61.94-218.55,223.47-208.87,472.24,8.26,212.18,120.34,352.77,218.55,423.05,73.4,46.79,116.7,49.79,116.7,49.79l-154-.6L0,1080V0H1371s-167.29,32.33-278,134.92"/>
                    </g>
                    </g>
                    </g>
                    </g>
</svg>